<?xml version="1.0" standalone="no"?>
<!DOCTYPE svg PUBLIC "-//W3C//DTD SVG 20010904//EN"
 "http://www.w3.org/TR/2001/REC-SVG-20010904/DTD/svg10.dtd">
<svg version="1.0" xmlns="http://www.w3.org/2000/svg"
 width="70.000000pt" height="70.000000pt" viewBox="0 0 70.000000 70.000000"
 preserveAspectRatio="xMidYMid meet">
<metadata>
Created by potrace 1.11, written by Peter Selinger 2001-2013
</metadata>
<g transform="translate(0.000000,70.000000) scale(0.100000,-0.100000)"
fill="#000000" stroke="none">
<path d="M550 690 c0 -5 -15 -24 -32 -41 -18 -17 -33 -35 -33 -40 0 -6 -7 -14
-15 -19 -8 -5 -10 -10 -4 -10 6 0 10 -15 8 -37 -2 -31 -12 -47 -62 -95 -33
-32 -57 -58 -54 -58 4 0 -1 -5 -10 -11 -23 -13 -24 -49 -2 -49 9 0 43 27 76
60 70 71 96 89 123 84 11 -1 23 2 27 9 6 9 8 9 8 0 0 -22 17 -14 70 35 38 35
49 52 44 65 -4 11 -13 16 -22 12 -8 -3 -19 0 -23 7 -6 9 -11 9 -22 -1 -13 -10
-16 -8 -22 8 -3 12 -4 25 -1 30 4 5 0 15 -7 23 -8 7 -12 19 -9 26 2 7 -5 12
-17 12 -12 0 -21 -4 -21 -10z"/>
<path d="M275 652 c-11 -2 -26 -9 -34 -16 -11 -8 -13 -8 -8 1 4 6 -12 2 -35
-10 -24 -11 -46 -20 -50 -19 -5 1 -8 -5 -8 -15 0 -9 -3 -13 -7 -10 -8 8 -93
-85 -87 -95 3 -5 1 -8 -5 -8 -5 0 -12 -13 -16 -30 -4 -16 -11 -30 -16 -30 -6
0 -9 -37 -8 -90 1 -54 6 -90 12 -90 6 0 8 -3 4 -6 -19 -19 105 -184 139 -184
7 0 14 -4 16 -10 2 -5 13 -11 26 -13 13 -2 27 -9 31 -16 10 -16 160 -13 180 3
11 8 13 8 8 0 -4 -7 16 0 45 15 60 31 148 115 148 143 0 11 5 16 10 13 9 -5
15 23 11 47 0 5 3 8 7 8 10 0 10 2 12 83 1 36 -3 64 -11 74 -12 14 -12 16 1 8
13 -8 13 -7 1 8 -26 32 -79 20 -72 -17 6 -31 8 -116 2 -116 -3 0 -7 -14 -7
-31 -1 -18 -9 -36 -18 -41 -9 -5 -14 -13 -11 -19 4 -5 1 -9 -6 -9 -7 0 -10 -3
-6 -6 7 -7 -54 -60 -65 -56 -4 1 -8 -2 -8 -6 0 -5 -19 -15 -42 -22 -52 -17
-140 -21 -131 -7 4 6 0 8 -9 5 -8 -4 -29 2 -47 13 -17 10 -31 16 -31 14 0 -3
-13 7 -28 22 -33 33 -76 93 -66 93 3 0 1 7 -6 15 -6 8 -9 19 -5 25 3 5 3 10
-2 10 -4 0 -9 11 -9 25 -1 16 2 22 10 18 8 -5 8 -3 0 8 -5 8 -9 20 -8 27 1 6
2 19 3 28 0 8 6 12 11 9 6 -3 10 -2 10 4 0 5 -6 12 -12 14 -9 4 -9 6 -1 6 6 1
17 17 23 36 6 19 15 33 20 30 4 -3 10 2 13 10 8 19 80 66 106 68 11 1 21 4 21
8 0 9 93 5 109 -5 11 -7 12 -6 6 5 -7 11 -6 12 6 2 13 -10 19 -10 35 3 10 8
13 13 6 9 -10 -5 -11 0 -6 19 4 17 2 26 -6 26 -6 0 -9 4 -6 8 3 5 0 9 -7 9 -7
1 -34 3 -62 5 -27 3 -59 3 -70 0z"/>
<path d="M321 521 c-5 -4 -23 -6 -38 -5 -15 0 -32 -3 -38 -7 -5 -5 -25 -21
-43 -35 -49 -39 -70 -88 -66 -154 5 -77 4 -75 39 -114 27 -31 135 -100 121
-78 -2 4 20 7 50 7 30 -1 54 1 54 5 0 3 15 13 33 23 18 10 42 33 53 50 23 38
45 117 33 117 -4 0 -6 14 -4 30 2 21 -1 30 -11 30 -20 0 -58 -46 -59 -73 -4
-59 -53 -106 -111 -107 -39 0 -94 18 -94 32 0 4 -7 13 -15 22 -23 23 -22 89 3
128 12 18 22 29 22 24 0 -6 6 -2 13 8 7 9 26 18 42 20 34 2 53 12 78 42 17 20
16 21 -17 31 -19 6 -39 8 -45 4z"/>
</g>
</svg>
